# xmcd
#
# Track frame offsets: 
#        150
#        14487
#        28162
#        42868
#        55875
#        70568
#        82479
#        95517
#        109302
#        125007
#        137911
#        149756
#        162780
#        176830
#        191128
#        204322
#        216285
#        229410
#        241617
#        254267
#        268052
#        281161
#        293480
#        307112
#        319452
#
# Disc length: 4438 seconds
#
# Revision: 0
# Processed by: cddbd v1.5.2PL0 Copyright (c) Steve Scherf et al.
# Submitted via: ExactAudioCopy v1.0b3
#
DISCID=91115419
DTITLE=T-Bone Walker - The Ultimate Collection 1929-57 
DYEAR=2014
DGENRE=Blues
TTITLE0=Wichita Falls Blues
TTITLE1=Trinity River Blues
TTITLE2=T-Bone Blues
TTITLE3=Mean Old World
TTITLE4=I Got A Break Baby
TTITLE5=Sail On Boogie
TTITLE6=I'm Still In Love With You
TTITLE7=T-Bone Boogie
TTITLE8=Evenin'
TTITLE9=Mean Old World Blues
TTITLE10=You Don't Love Me Blues
TTITLE11=My Baby Left Me
TTITLE12=Come Back Baby Blues
TTITLE13=I Can't Stand Being Away from You
TTITLE14=She Is Going To Ruin Me
TTITLE15=Bobby Sox Blues
TTITLE16=I'm Gonna Find My Baby
TTITLE17=No Worry Blues
TTITLE18=Don't Leave Me Baby
TTITLE19=Don't Give Me the Runaround
TTITLE20=It's A Low Down Dirty Shame
TTITLE21=I'm In An Awful Mood
TTITLE22=Hard Pain Blues
TTITLE23=I Know Your Wig Has Gone 
TTITLE24=Call It Stormy Monday Blues But Tuesday Is Just As Bad
EXTD=
EXTT0=
EXTT1=
EXTT2=
EXTT3=
EXTT4=
EXTT5=
EXTT6=
EXTT7=
EXTT8=
EXTT9=
EXTT10=
EXTT11=
EXTT12=
EXTT13=
EXTT14=
EXTT15=
EXTT16=
EXTT17=
EXTT18=
EXTT19=
EXTT20=
EXTT21=
EXTT22=
EXTT23=
EXTT24=
PLAYORDER=
